# xmcd
#
# Track frame offsets:
#	150
#	20370
#	32890
#	47385
#	58532
#	69142
#	83165
#	95470
#	106720
#	138572
#	149130
#	164082
#	174765
#	192645
#	208825
#	221565
#	234132
#	249530
#	260790
#	271395
#	284262
#	297447
#	311440
#	328382
#
# Disc length: 4721 seconds
#
# Revision: 0
# Processed by: cddbd v1.5.2PL0 Copyright (c) Steve Scherf et al.
# Submitted via: audiograbber 1.83.01
#
DISCID=6f126f18
DTITLE=The Animals - Boom Boom - Best [Zounds]
DYEAR=1994
DGENRE=R and B
TTITLE0=The House Of The Rising Sun [mono]
TTITLE1=I'm Crying [mono]
TTITLE2=We've Gotta Get Out Of This Place [mono]
TTITLE3=Don't Let Me Be Misunderstood [mono]
TTITLE4=Baby Let Me Take You Home [mono]
TTITLE5=It's My Life [mono]
TTITLE6=Bring It On Home To Me [mono]
TTITLE7=Gonna Send You Back To Walker [mono]
TTITLE8=Talkin' 'Bout You [mono]
TTITLE9=Club-A-GoGo [mono]
TTITLE10=Boom Boom [mono]
TTITLE11=The Girl Can't Help It [mono]
TTITLE12=For Miss Caulker [mono]
TTITLE13=I'm Going To Change The World [mono]
TTITLE14=Roadrunner [mono]
TTITLE15=Hallelujah I Love Her So [mono]
TTITLE16=I Believe To My Soul [mono]
TTITLE17=I Ain't Got You [mono]
TTITLE18=Mess Around [mono]
TTITLE19=Bury My Body [mono]
TTITLE20=Bright Lights Big City [mono]
TTITLE21=Memphis Tennessee [mono]
TTITLE22=The Right Time [mono]
TTITLE23=The Story Of Bo Diddley [mono]
EXTD=
EXTT0=
EXTT1=
EXTT2=
EXTT3=
EXTT4=
EXTT5=
EXTT6=
EXTT7=
EXTT8=
EXTT9=
EXTT10=
EXTT11=
EXTT12=
EXTT13=
EXTT14=
EXTT15=
EXTT16=
EXTT17=
EXTT18=
EXTT19=
EXTT20=
EXTT21=
EXTT22=
EXTT23=
PLAYORDER=
